<svg version="1.0" xmlns="http://www.w3.org/2000/svg" width="85.333" height="85.333" viewBox="0 0 64 64"><g fill="#C70101"><path d="M22.3 1.8C11.4 5.7 4.5 13 1.3 23.9c-2.9 10.2.4 22.8 8.2 30.6 12.2 12.1 32.8 12.1 45 0 9.1-9.2 11.8-24.1 6.4-35.6C54 4.3 36.8-3.4 22.3 1.8zm21.4 6c5.1 2.7 9.8 7.3 12.6 12.6 3.1 5.8 3.1 17.4 0 23.2-2.8 5.3-7.4 9.9-12.7 12.7-5.8 3.1-17.4 3.1-23.2 0C-1.3 44.8.7 15 23.7 6.4c5.1-1.9 14.8-1.2 20 1.4z"/><path d="M23.6 29.9C17.1 36.5 16 39 19.8 39c.9 0 4-2.3 6.9-5.2l5.2-5.2 6.1 5.9c5.7 5.4 6.3 5.7 7.8 4.1 1.5-1.5 1.1-2.1-5.3-8.6-3.8-3.9-7.6-7-8.5-7-.9 0-4.6 3.1-8.4 6.9z"/></g></svg>